<svg width="95" height="93" viewBox="0 0 95 93" fill="none" xmlns="http://www.w3.org/2000/svg">
<rect width="95" height="92.1212" rx="18.2323" fill="white"/>
<g clip-path="url(#clip0)">
<path d="M37.4186 78.1967C43.2452 78.1967 47.974 73.4679 47.974 67.6414V57.086H37.4186C31.5921 57.086 26.8633 61.8148 26.8633 67.6414C26.8633 73.4679 31.5921 78.1967 37.4186 78.1967Z" fill="#09CF84"/>
<path d="M26.8633 46.5305C26.8633 40.704 31.5921 35.9752 37.4186 35.9752H47.974V57.0859H37.4186C31.5921 57.0859 26.8633 52.3571 26.8633 46.5305Z" fill="#A259FF"/>
<path d="M26.8647 25.4196C26.8647 19.593 31.5935 14.8642 37.4201 14.8642H47.9755V35.9749H37.4201C31.5935 35.9749 26.8647 31.2461 26.8647 25.4196Z" fill="#F24D1D"/>
<path d="M47.9761 14.8645H58.5314C64.358 14.8645 69.0868 19.5933 69.0868 25.4199C69.0868 31.2464 64.358 35.9752 58.5314 35.9752H47.9761V14.8645Z" fill="#FF7163"/>
<path d="M69.0868 46.5305C69.0868 52.3571 64.358 57.0859 58.5314 57.0859C52.7049 57.0859 47.9761 52.3571 47.9761 46.5305C47.9761 40.704 52.7049 35.9752 58.5314 35.9752C64.358 35.9752 69.0868 40.704 69.0868 46.5305Z" fill="#19BCFD"/>
</g>
<defs>
<clipPath id="clip0">
<rect x="26.8613" y="14.8644" width="42.2299" height="63.3322" fill="white"/>
</clipPath>
</defs>
</svg>
