<svg width="153" height="136" viewBox="0 0 153 136" fill="none" xmlns="http://www.w3.org/2000/svg">
<g clip-path="url(#clip0)">
<path d="M88.5079 129.459C118.43 114.182 130.3 77.5456 115.02 47.6296C99.7392 17.7137 63.0952 5.84651 33.1728 21.1236C3.25049 36.4007 -8.61918 73.0369 6.66117 102.953C21.9415 132.869 58.5855 144.736 88.5079 129.459Z" fill="#A8B9FF"/>
<path d="M77.5443 46.8562L63.1842 33.6738C61.8788 32.3687 59.6595 32.3687 58.354 33.6738L44.1245 46.8562H77.5443Z" fill="#14287D"/>
<path d="M90.8593 46.8561H30.8081V72.5682L50.39 87.4473H71.2774L90.8593 72.5682V46.8561Z" fill="#FFF196" fill-opacity="0.8"/>
<path d="M76.4993 58.8638H45.1683C44.385 58.8638 43.8628 58.3418 43.8628 57.5587C43.8628 56.7756 44.385 56.2535 45.1683 56.2535H76.4993C77.2826 56.2535 77.8048 56.7756 77.8048 57.5587C77.8048 58.3418 77.1521 58.8638 76.4993 58.8638Z" fill="#B6B094"/>
<path d="M76.4993 66.0423H45.1683C44.385 66.0423 43.8628 65.5202 43.8628 64.7371C43.8628 63.954 44.385 63.4319 45.1683 63.4319H76.4993C77.2826 63.4319 77.8048 63.954 77.8048 64.7371C77.8048 65.5202 77.1521 66.0423 76.4993 66.0423Z" fill="#B6B094"/>
<path d="M76.4993 73.2208H45.1683C44.385 73.2208 43.8628 72.6988 43.8628 71.9157C43.8628 71.1325 44.385 70.6105 45.1683 70.6105H76.4993C77.2826 70.6105 77.8048 71.1325 77.8048 71.9157C77.8048 72.6988 77.1521 73.2208 76.4993 73.2208Z" fill="#B6B094"/>
<path d="M76.4993 80.3994H45.1683C44.385 80.3994 43.8628 79.8773 43.8628 79.0942C43.8628 78.3111 44.385 77.789 45.1683 77.789H76.4993C77.2826 77.789 77.8048 78.3111 77.8048 79.0942C77.8048 79.8773 77.1521 80.3994 76.4993 80.3994Z" fill="#B6B094"/>
<path d="M30.9389 72.6988L30.8083 72.5682V59.2554L22.9756 66.5644L30.9389 72.6988Z" fill="#14287D"/>
<path d="M90.8592 59.2554V72.5682L90.5981 72.6988L98.692 66.5644L90.8592 59.2554Z" fill="#14287D"/>
<path d="M22.9756 108.33H23.1061H98.0396H98.4312H98.6923L71.2776 87.4474H50.3903L22.9756 108.33Z" fill="#2D49C2"/>
<path d="M22.9756 108.33V66.5645L50.3903 87.4474L22.9756 108.33Z" fill="#1732A4"/>
<path d="M98.6925 108.33V66.5645L71.2778 87.4474L98.6925 108.33Z" fill="#1732A4"/>
<path d="M133.94 23.7543C134.854 23.1017 153 8.6142 153 8.6142L145.036 31.4549L133.94 23.7543Z" fill="#2D49C2"/>
<path d="M116.447 19.1862C116.447 19.1862 126.107 21.5355 126.238 21.405C126.499 21.2745 153 8.6142 153 8.6142L116.447 19.1862Z" fill="#2D49C2"/>
<path d="M126.238 21.405L128.588 31.8464L133.94 23.7543L153 8.6142L126.238 21.405Z" fill="#1732A4"/>
<path d="M128.587 31.8464L135.767 25.0595L133.94 23.7543L128.587 31.8464Z" fill="#14287D"/>
<path d="M93.731 40.8522C95.5586 40.0691 98.4306 39.8081 101.694 43.071C107.308 48.5528 101.694 61.0825 111.224 60.8215C118.013 60.691 118.665 46.8561 114.749 46.8561C110.702 46.8561 113.182 53.7735 117.36 53.7735C130.153 53.904 124.67 41.1132 124.67 41.1132C124.67 41.1132 123.757 36.1536 125.323 33.6737" stroke="#506B7C" stroke-width="1.33859" stroke-linecap="round" stroke-linejoin="round"/>
<path d="M45.5596 2.74097V9.00584" stroke="#2D49C2" stroke-width="2.33534" stroke-miterlimit="10" stroke-linecap="round" stroke-linejoin="round"/>
<path d="M48.693 5.87341H42.4268" stroke="#2D49C2" stroke-width="2.33534" stroke-miterlimit="10" stroke-linecap="round" stroke-linejoin="round"/>
<path d="M8.35449 28.8446V33.6738" stroke="#2D49C2" stroke-width="1.75307" stroke-miterlimit="10" stroke-linecap="round" stroke-linejoin="round"/>
<path d="M10.7045 31.1939H6.00488" stroke="#2D49C2" stroke-width="1.75307" stroke-miterlimit="10" stroke-linecap="round" stroke-linejoin="round"/>
<path d="M99.7363 19.0557V23.7544" stroke="#14287D" stroke-width="1.75307" stroke-miterlimit="10" stroke-linecap="round" stroke-linejoin="round"/>
<path d="M102.087 21.405H97.2563" stroke="#14287D" stroke-width="1.75307" stroke-miterlimit="10" stroke-linecap="round" stroke-linejoin="round"/>
<path d="M94.6455 11.6162V16.9675" stroke="#FFF196" stroke-width="2.00334" stroke-miterlimit="10" stroke-linecap="round" stroke-linejoin="round"/>
<path d="M97.2562 14.2266H91.9038" stroke="#FFF196" stroke-width="2.00334" stroke-miterlimit="10" stroke-linecap="round" stroke-linejoin="round"/>
<path d="M5.48237 19.9694C7.06853 19.9694 8.35438 18.6838 8.35438 17.098C8.35438 15.5121 7.06853 14.2266 5.48237 14.2266C3.8962 14.2266 2.61035 15.5121 2.61035 17.098C2.61035 18.6838 3.8962 19.9694 5.48237 19.9694Z" fill="#1732A4"/>
<path d="M83.6794 3.00195C83.6794 4.56817 82.374 6.00387 80.6769 6.00387C79.1103 6.00387 77.6743 4.69869 77.6743 3.00195C77.6743 1.30521 78.9798 3.05176e-05 80.6769 3.05176e-05C82.374 3.05176e-05 83.6794 1.30521 83.6794 3.00195Z" fill="#2D49C2"/>
<path d="M28.5887 13.4435C29.7423 13.4435 30.6775 12.5085 30.6775 11.3552C30.6775 10.2019 29.7423 9.26691 28.5887 9.26691C27.4352 9.26691 26.5 10.2019 26.5 11.3552C26.5 12.5085 27.4352 13.4435 28.5887 13.4435Z" fill="#EEE6AB"/>
</g>
<defs>
<clipPath id="clip0">
<rect width="153" height="136" fill="white"/>
</clipPath>
</defs>
</svg>
