<svg width="602" height="98" viewBox="0 0 602 98" fill="none" xmlns="http://www.w3.org/2000/svg">
<path d="M320.643 0.083374H602V97.4762H320.643V0.083374Z" fill="white"/>
<path d="M17.328 80.0476V31.6542H0.0136719V20.4865H46.9354V31.6542H29.6211V80.0476H17.328Z" fill="white"/>
<path d="M82.2592 56.6733C82.2592 52.9796 82.0861 50.4113 81.7398 48.9685C81.4512 47.5256 80.8164 46.6022 79.8352 46.1982C78.8541 45.7365 77.1227 45.5056 74.6409 45.5056C72.1592 45.5056 70.3124 45.8807 69.1004 46.631C67.9461 47.3813 67.1669 48.5645 66.7629 50.1805C66.4167 51.7965 66.2435 54.1339 66.2435 57.1927V80.0476H54.7295V15.725H66.2435V41.0905H66.9361C68.0904 39.0705 69.7064 37.5988 71.7841 36.6753C73.9195 35.7519 76.6321 35.2902 79.9218 35.2902C83.7887 35.2902 86.7321 35.925 88.7521 37.1947C90.7721 38.4645 92.0995 40.3113 92.7344 42.7353C93.4269 45.1016 93.7732 48.3336 93.7732 52.4313V80.0476H82.2592V56.6733Z" fill="white"/>
<path d="M143.448 61.4348H115.918C115.918 64.5513 116.149 66.7445 116.611 68.0142C117.072 69.2839 118.111 70.1496 119.727 70.6113C121.343 71.0153 124.2 71.2173 128.298 71.2173C131.703 71.2173 136.176 70.9865 141.716 70.5247V79.355C139.869 79.759 137.445 80.0765 134.444 80.3073C131.443 80.5959 128.5 80.7402 125.614 80.7402C119.208 80.7402 114.504 80.0187 111.503 78.5759C108.502 77.133 106.568 74.8822 105.703 71.8233C104.837 68.7645 104.404 64.1762 104.404 58.0585C104.404 52.1139 104.837 47.6122 105.703 44.5533C106.626 41.4368 108.502 39.0993 111.33 37.541C114.215 35.9827 118.659 35.2036 124.662 35.2036C130.549 35.2036 134.819 35.9827 137.474 37.541C140.129 39.0416 141.774 41.2925 142.409 44.2936C143.101 47.237 143.448 51.8253 143.448 58.0585V61.4348ZM124.489 44.3802C121.891 44.3802 120.016 44.6399 118.861 45.1593C117.707 45.621 116.928 46.5156 116.524 47.843C116.178 49.1705 115.976 51.3348 115.918 54.3359H132.54C132.54 51.3348 132.309 49.1416 131.847 47.7565C131.385 46.3713 130.606 45.4767 129.51 45.0728C128.413 44.611 126.739 44.3802 124.489 44.3802Z" fill="white"/>
<path d="M222.899 20.4865V53.3836C222.899 61.2905 222.38 67.0907 221.341 70.7845C220.36 74.4205 218.253 76.9887 215.021 78.4893C211.789 79.9899 206.595 80.7402 199.438 80.7402C192.282 80.7402 187.088 79.9899 183.856 78.4893C180.624 76.9887 178.488 74.4205 177.449 70.7845C176.41 67.0907 175.891 61.2905 175.891 53.3836V20.4865H188.184V56.5002C188.184 60.9442 188.386 64.0319 188.79 65.7633C189.194 67.4948 190.146 68.6779 191.647 69.3128C193.148 69.9476 195.745 70.265 199.438 70.265C203.19 70.265 205.787 69.9476 207.23 69.3128C208.73 68.6779 209.654 67.4948 210 65.7633C210.404 64.0319 210.606 60.9442 210.606 56.5002V20.4865H222.899Z" fill="white"/>
<path d="M272.443 80.0476L259.025 60.1362H258.332L244.827 80.0476H231.149L251.32 50.1805L231.495 20.4865H245.693L258.765 39.7919H259.457L272.616 20.4865H286.381L266.556 49.9207L286.641 80.0476H272.443Z" fill="white"/>
<path d="M355.993 80.7402C347.509 80.7402 340.237 80.2785 334.177 79.3551V69.0531C341.276 69.7457 347.336 70.092 352.357 70.092C355.3 70.092 357.58 69.9765 359.196 69.7457C360.87 69.4571 362.11 68.9954 362.918 68.3605C363.669 67.7834 364.13 67.0908 364.304 66.2828C364.534 65.4748 364.65 64.3205 364.65 62.82C364.65 61.1462 364.534 59.9342 364.304 59.184C364.073 58.3759 363.611 57.7988 362.918 57.4525C362.226 57.0485 361.072 56.76 359.456 56.5868L346.73 55.1151C342.92 54.5957 339.977 53.6145 337.899 52.1717C335.822 50.6711 334.379 48.7665 333.571 46.458C332.82 44.0917 332.445 41.1771 332.445 37.7142C332.445 32.6354 333.369 28.7974 335.216 26.2002C337.062 23.5454 339.544 21.814 342.661 21.006C345.777 20.198 349.788 19.794 354.694 19.794C362.255 19.794 368.719 20.3711 374.086 21.5254V31.5677C368.488 30.8174 362.861 30.4422 357.205 30.4422C352.01 30.4422 348.576 30.8751 346.903 31.7408C345.979 32.2025 345.402 32.8085 345.171 33.5588C344.94 34.3091 344.825 35.4345 344.825 36.9351C344.825 38.6665 344.94 39.9074 345.171 40.6577C345.402 41.408 345.893 41.9562 346.643 42.3025C347.451 42.5911 348.778 42.8508 350.625 43.0817L364.304 44.7265C366.958 45.0151 369.152 45.5634 370.883 46.3714C372.614 47.1217 373.971 48.3914 374.952 50.1805C376.337 52.6622 377.03 56.5002 377.03 61.6945C377.03 67.1774 376.164 71.304 374.432 74.0742C372.701 76.8445 370.364 78.6625 367.42 79.5282C364.534 80.3362 360.725 80.7402 355.993 80.7402Z" fill="#1732A4"/>
<path d="M417.811 79.4417C416.137 79.8457 414.117 80.1631 411.751 80.394C409.385 80.6248 407.105 80.7402 404.912 80.7402C399.256 80.7402 395.1 79.9322 392.445 78.3162C389.791 76.6425 388.088 74.2762 387.338 71.2174C386.587 68.1008 386.212 63.6568 386.212 57.8854C386.212 52.4025 386.616 48.1028 387.424 44.9862C388.232 41.8697 389.964 39.4745 392.619 37.8008C395.331 36.0694 399.371 35.2037 404.739 35.2037C406.932 35.2037 409.183 35.348 411.491 35.6365C413.857 35.8674 415.849 36.1848 417.465 36.5888V45.5057C414.463 44.9862 411.231 44.7265 407.769 44.7265C404.71 44.7265 402.517 45.0728 401.189 45.7654C399.862 46.458 398.967 47.6988 398.505 49.488C398.101 51.2194 397.899 54.0474 397.899 57.972C397.899 61.9542 398.13 64.84 398.592 66.6291C399.054 68.3605 399.948 69.5725 401.276 70.2651C402.661 70.9 404.883 71.2174 407.942 71.2174C410.019 71.2174 413.309 70.9865 417.811 70.5248V79.4417Z" fill="#1732A4"/>
<path d="M455.204 56.6734C455.204 52.9797 455.031 50.4114 454.685 48.9685C454.396 47.5257 453.761 46.6022 452.78 46.1982C451.799 45.7365 450.068 45.5057 447.586 45.5057C445.104 45.5057 443.257 45.8808 442.045 46.6311C440.891 47.3814 440.112 48.5645 439.708 50.1805C439.362 51.7965 439.189 54.134 439.189 57.1928V80.0477H427.675V15.7251H439.189V41.0905H439.881C441.035 39.0705 442.651 37.5988 444.729 36.6754C446.865 35.752 449.577 35.2902 452.867 35.2902C456.734 35.2902 459.677 35.9251 461.697 37.1948C463.717 38.4645 465.045 40.3114 465.679 42.7354C466.372 45.1017 466.718 48.3337 466.718 52.4314V80.0477H455.204V56.6734Z" fill="#1732A4"/>
<path d="M497.607 80.7402C491.258 80.7402 486.67 80.1054 483.842 78.8357C481.072 77.5082 479.282 75.344 478.474 72.3428C477.724 69.3417 477.349 64.5225 477.349 57.8854C477.349 51.2482 477.724 46.458 478.474 43.5145C479.282 40.5134 481.072 38.378 483.842 37.1082C486.612 35.8385 491.2 35.2037 497.607 35.2037C504.013 35.2037 508.601 35.8385 511.372 37.1082C514.142 38.378 515.902 40.5134 516.652 43.5145C517.46 46.458 517.864 51.2482 517.864 57.8854C517.864 64.5225 517.46 69.3417 516.652 72.3428C515.902 75.344 514.113 77.5082 511.285 78.8357C508.515 80.1054 503.955 80.7402 497.607 80.7402ZM497.607 71.2174C500.608 71.2174 502.657 70.9288 503.753 70.3517C504.908 69.7745 505.6 68.678 505.831 67.062C506.12 65.4459 506.264 62.3871 506.264 57.8854C506.264 53.3837 506.12 50.3537 505.831 48.7954C505.6 47.1794 504.908 46.1117 503.753 45.5922C502.657 45.0151 500.608 44.7265 497.607 44.7265C494.606 44.7265 492.528 45.0151 491.374 45.5922C490.277 46.1117 489.584 47.1794 489.296 48.7954C489.065 50.3537 488.95 53.3837 488.95 57.8854C488.95 62.3871 489.065 65.4459 489.296 67.062C489.584 68.678 490.277 69.7745 491.374 70.3517C492.528 70.9288 494.606 71.2174 497.607 71.2174Z" fill="#1732A4"/>
<path d="M547.149 80.7402C540.8 80.7402 536.212 80.1054 533.384 78.8357C530.613 77.5082 528.824 75.344 528.016 72.3428C527.266 69.3417 526.891 64.5225 526.891 57.8854C526.891 51.2482 527.266 46.458 528.016 43.5145C528.824 40.5134 530.613 38.378 533.384 37.1082C536.154 35.8385 540.742 35.2037 547.149 35.2037C553.555 35.2037 558.143 35.8385 560.913 37.1082C563.684 38.378 565.444 40.5134 566.194 43.5145C567.002 46.458 567.406 51.2482 567.406 57.8854C567.406 64.5225 567.002 69.3417 566.194 72.3428C565.444 75.344 563.655 77.5082 560.827 78.8357C558.057 80.1054 553.497 80.7402 547.149 80.7402ZM547.149 71.2174C550.15 71.2174 552.199 70.9288 553.295 70.3517C554.449 69.7745 555.142 68.678 555.373 67.062C555.661 65.4459 555.806 62.3871 555.806 57.8854C555.806 53.3837 555.661 50.3537 555.373 48.7954C555.142 47.1794 554.449 46.1117 553.295 45.5922C552.199 45.0151 550.15 44.7265 547.149 44.7265C544.147 44.7265 542.07 45.0151 540.915 45.5922C539.819 46.1117 539.126 47.1794 538.838 48.7954C538.607 50.3537 538.491 53.3837 538.491 57.8854C538.491 62.3871 538.607 65.4459 538.838 67.062C539.126 68.678 539.819 69.7745 540.915 70.3517C542.07 70.9288 544.147 71.2174 547.149 71.2174Z" fill="#1732A4"/>
<path d="M577.991 80.0477V15.7251H589.592V80.0477H577.991Z" fill="#1732A4"/>
</svg>
