<svg width="380" height="28" viewBox="0 0 380 28" fill="none" xmlns="http://www.w3.org/2000/svg">
<path d="M89 0H167V27H89V0Z" fill="white"/>
<path d="M4.91279 22V8.58397H0.112793V5.48797H13.1208V8.58397H8.32079V22H4.91279Z" fill="white"/>
<path d="M22.9135 15.52C22.9135 14.496 22.8655 13.784 22.7695 13.384C22.6895 12.984 22.5135 12.728 22.2415 12.616C21.9695 12.488 21.4895 12.424 20.8015 12.424C20.1135 12.424 19.6015 12.528 19.2655 12.736C18.9455 12.944 18.7295 13.272 18.6175 13.72C18.5215 14.168 18.4735 14.816 18.4735 15.664V22H15.2815V4.16797H18.4735V11.2H18.6655C18.9855 10.64 19.4335 10.232 20.0095 9.97597C20.6015 9.71997 21.3535 9.59197 22.2655 9.59197C23.3375 9.59197 24.1535 9.76797 24.7135 10.12C25.2735 10.472 25.6415 10.984 25.8175 11.656C26.0095 12.312 26.1055 13.208 26.1055 14.344V22H22.9135V15.52Z" fill="white"/>
<path d="M39.8767 16.84H32.2447C32.2447 17.704 32.3087 18.312 32.4367 18.664C32.5647 19.016 32.8527 19.256 33.3007 19.384C33.7487 19.496 34.5407 19.552 35.6767 19.552C36.6207 19.552 37.8607 19.488 39.3967 19.36V21.808C38.8847 21.92 38.2127 22.008 37.3807 22.072C36.5487 22.152 35.7327 22.192 34.9327 22.192C33.1567 22.192 31.8527 21.992 31.0207 21.592C30.1887 21.192 29.6527 20.568 29.4127 19.72C29.1727 18.872 29.0527 17.6 29.0527 15.904C29.0527 14.256 29.1727 13.008 29.4127 12.16C29.6687 11.296 30.1887 10.648 30.9727 10.216C31.7727 9.78397 33.0047 9.56797 34.6687 9.56797C36.3007 9.56797 37.4847 9.78397 38.2207 10.216C38.9567 10.632 39.4127 11.256 39.5887 12.088C39.7807 12.904 39.8767 14.176 39.8767 15.904V16.84ZM34.6207 12.112C33.9007 12.112 33.3807 12.184 33.0607 12.328C32.7407 12.456 32.5247 12.704 32.4127 13.072C32.3167 13.44 32.2607 14.04 32.2447 14.872H36.8527C36.8527 14.04 36.7887 13.432 36.6607 13.048C36.5327 12.664 36.3167 12.416 36.0127 12.304C35.7087 12.176 35.2447 12.112 34.6207 12.112Z" fill="white"/>
<path d="M61.9029 5.48797V14.608C61.9029 16.8 61.7589 18.408 61.4709 19.432C61.1989 20.44 60.6149 21.152 59.7189 21.568C58.8229 21.984 57.3829 22.192 55.3989 22.192C53.4149 22.192 51.9749 21.984 51.0789 21.568C50.1829 21.152 49.5909 20.44 49.3029 19.432C49.0149 18.408 48.8709 16.8 48.8709 14.608V5.48797H52.2789V15.472C52.2789 16.704 52.3349 17.56 52.4469 18.04C52.5589 18.52 52.8229 18.848 53.2389 19.024C53.6549 19.2 54.3749 19.288 55.3989 19.288C56.4389 19.288 57.1589 19.2 57.5589 19.024C57.9749 18.848 58.2309 18.52 58.3269 18.04C58.4389 17.56 58.4949 16.704 58.4949 15.472V5.48797H61.9029Z" fill="white"/>
<path d="M75.6378 22L71.9178 16.48H71.7258L67.9818 22H64.1898L69.7818 13.72L64.2858 5.48797H68.2218L71.8458 10.84H72.0378L75.6858 5.48797H79.5018L74.0058 13.648L79.5738 22H75.6378Z" fill="white"/>
<path d="M98.8 22.192C96.448 22.192 94.432 22.064 92.752 21.808V18.952C94.72 19.144 96.4 19.24 97.792 19.24C98.608 19.24 99.24 19.208 99.688 19.144C100.152 19.064 100.496 18.936 100.72 18.76C100.928 18.6 101.056 18.408 101.104 18.184C101.168 17.96 101.2 17.64 101.2 17.224C101.2 16.76 101.168 16.424 101.104 16.216C101.04 15.992 100.912 15.832 100.72 15.736C100.528 15.624 100.208 15.544 99.76 15.496L96.232 15.088C95.176 14.944 94.36 14.672 93.784 14.272C93.208 13.856 92.808 13.328 92.584 12.688C92.376 12.032 92.272 11.224 92.272 10.264C92.272 8.85597 92.528 7.79197 93.04 7.07197C93.552 6.33597 94.24 5.85597 95.104 5.63197C95.968 5.40797 97.08 5.29597 98.44 5.29597C100.536 5.29597 102.328 5.45597 103.816 5.77597V8.55997C102.264 8.35197 100.704 8.24797 99.136 8.24797C97.696 8.24797 96.744 8.36797 96.28 8.60797C96.024 8.73597 95.864 8.90397 95.8 9.11197C95.736 9.31997 95.704 9.63197 95.704 10.048C95.704 10.528 95.736 10.872 95.8 11.08C95.864 11.288 96 11.44 96.208 11.536C96.432 11.616 96.8 11.688 97.312 11.752L101.104 12.208C101.84 12.288 102.448 12.44 102.928 12.664C103.408 12.872 103.784 13.224 104.056 13.72C104.44 14.408 104.632 15.472 104.632 16.912C104.632 18.432 104.392 19.576 103.912 20.344C103.432 21.112 102.784 21.616 101.968 21.856C101.168 22.08 100.112 22.192 98.8 22.192Z" fill="#1732A4"/>
<path d="M115.938 21.832C115.474 21.944 114.914 22.032 114.258 22.096C113.602 22.16 112.97 22.192 112.362 22.192C110.794 22.192 109.642 21.968 108.906 21.52C108.17 21.056 107.698 20.4 107.49 19.552C107.282 18.688 107.178 17.456 107.178 15.856C107.178 14.336 107.29 13.144 107.514 12.28C107.738 11.416 108.218 10.752 108.954 10.288C109.706 9.80797 110.826 9.56797 112.314 9.56797C112.922 9.56797 113.546 9.60797 114.186 9.68797C114.842 9.75197 115.394 9.83997 115.842 9.95197V12.424C115.01 12.28 114.114 12.208 113.154 12.208C112.306 12.208 111.698 12.304 111.33 12.496C110.962 12.688 110.714 13.032 110.586 13.528C110.474 14.008 110.418 14.792 110.418 15.88C110.418 16.984 110.482 17.784 110.61 18.28C110.738 18.76 110.986 19.096 111.354 19.288C111.738 19.464 112.354 19.552 113.202 19.552C113.778 19.552 114.69 19.488 115.938 19.36V21.832Z" fill="#1732A4"/>
<path d="M126.304 15.52C126.304 14.496 126.256 13.784 126.16 13.384C126.08 12.984 125.904 12.728 125.632 12.616C125.36 12.488 124.88 12.424 124.192 12.424C123.504 12.424 122.992 12.528 122.656 12.736C122.336 12.944 122.12 13.272 122.008 13.72C121.912 14.168 121.864 14.816 121.864 15.664V22H118.672V4.16797H121.864V11.2H122.056C122.376 10.64 122.824 10.232 123.4 9.97597C123.992 9.71997 124.744 9.59197 125.656 9.59197C126.728 9.59197 127.544 9.76797 128.104 10.12C128.664 10.472 129.032 10.984 129.208 11.656C129.4 12.312 129.496 13.208 129.496 14.344V22H126.304V15.52Z" fill="#1732A4"/>
<path d="M138.059 22.192C136.299 22.192 135.027 22.016 134.243 21.664C133.475 21.296 132.979 20.696 132.755 19.864C132.547 19.032 132.443 17.696 132.443 15.856C132.443 14.016 132.547 12.688 132.755 11.872C132.979 11.04 133.475 10.448 134.243 10.096C135.011 9.74397 136.283 9.56797 138.059 9.56797C139.835 9.56797 141.107 9.74397 141.875 10.096C142.643 10.448 143.131 11.04 143.339 11.872C143.563 12.688 143.675 14.016 143.675 15.856C143.675 17.696 143.563 19.032 143.339 19.864C143.131 20.696 142.635 21.296 141.851 21.664C141.083 22.016 139.819 22.192 138.059 22.192ZM138.059 19.552C138.891 19.552 139.459 19.472 139.763 19.312C140.083 19.152 140.275 18.848 140.339 18.4C140.419 17.952 140.459 17.104 140.459 15.856C140.459 14.608 140.419 13.768 140.339 13.336C140.275 12.888 140.083 12.592 139.763 12.448C139.459 12.288 138.891 12.208 138.059 12.208C137.227 12.208 136.651 12.288 136.331 12.448C136.027 12.592 135.835 12.888 135.755 13.336C135.691 13.768 135.659 14.608 135.659 15.856C135.659 17.104 135.691 17.952 135.755 18.4C135.835 18.848 136.027 19.152 136.331 19.312C136.651 19.472 137.227 19.552 138.059 19.552Z" fill="#1732A4"/>
<path d="M151.794 22.192C150.034 22.192 148.762 22.016 147.978 21.664C147.21 21.296 146.714 20.696 146.49 19.864C146.282 19.032 146.178 17.696 146.178 15.856C146.178 14.016 146.282 12.688 146.49 11.872C146.714 11.04 147.21 10.448 147.978 10.096C148.746 9.74397 150.018 9.56797 151.794 9.56797C153.57 9.56797 154.842 9.74397 155.61 10.096C156.378 10.448 156.866 11.04 157.074 11.872C157.298 12.688 157.41 14.016 157.41 15.856C157.41 17.696 157.298 19.032 157.074 19.864C156.866 20.696 156.37 21.296 155.586 21.664C154.818 22.016 153.554 22.192 151.794 22.192ZM151.794 19.552C152.626 19.552 153.194 19.472 153.498 19.312C153.818 19.152 154.01 18.848 154.074 18.4C154.154 17.952 154.194 17.104 154.194 15.856C154.194 14.608 154.154 13.768 154.074 13.336C154.01 12.888 153.818 12.592 153.498 12.448C153.194 12.288 152.626 12.208 151.794 12.208C150.962 12.208 150.386 12.288 150.066 12.448C149.762 12.592 149.57 12.888 149.49 13.336C149.426 13.768 149.394 14.608 149.394 15.856C149.394 17.104 149.426 17.952 149.49 18.4C149.57 18.848 149.762 19.152 150.066 19.312C150.386 19.472 150.962 19.552 151.794 19.552Z" fill="#1732A4"/>
<path d="M160.344 22V4.16797H163.56V22H160.344Z" fill="#1732A4"/>
<path opacity="0.5" d="M185 0H186V27H185V0Z" fill="white"/>
<path d="M212.28 5.19994C214.584 5.19994 216.496 6.00794 218.016 7.62394C219.552 9.23994 220.32 11.2319 220.32 13.5999C220.32 15.9519 219.552 17.9439 218.016 19.5759C216.496 21.1919 214.584 21.9999 212.28 21.9999H205.68V5.19994H212.28ZM212.28 19.3599C213.864 19.3599 215.152 18.8159 216.144 17.7279C217.152 16.6399 217.656 15.2639 217.656 13.5999C217.656 11.9199 217.152 10.5439 216.144 9.47194C215.152 8.38394 213.864 7.83994 212.28 7.83994H208.44V19.3599H212.28Z" fill="white"/>
<path d="M224.708 17.1039C224.9 18.0159 225.34 18.7199 226.028 19.2159C226.716 19.6959 227.556 19.9359 228.548 19.9359C229.924 19.9359 230.956 19.4399 231.644 18.4479L233.78 19.6959C232.596 21.4399 230.844 22.3119 228.524 22.3119C226.572 22.3119 224.996 21.7199 223.796 20.5359C222.596 19.3359 221.996 17.8239 221.996 15.9999C221.996 14.2079 222.588 12.7119 223.772 11.5119C224.956 10.2959 226.476 9.68794 228.332 9.68794C230.092 9.68794 231.532 10.3039 232.652 11.5359C233.788 12.7679 234.356 14.2639 234.356 16.0239C234.356 16.2959 234.324 16.6559 234.26 17.1039H224.708ZM224.684 14.9919H231.74C231.564 14.0159 231.156 13.2799 230.516 12.7839C229.892 12.2879 229.156 12.0399 228.308 12.0399C227.348 12.0399 226.548 12.3039 225.908 12.8319C225.268 13.3599 224.86 14.0799 224.684 14.9919Z" fill="white"/>
<path d="M238.496 13.3119C238.496 13.7119 238.712 14.0319 239.144 14.2719C239.592 14.4959 240.128 14.6959 240.752 14.8719C241.392 15.0319 242.032 15.2239 242.672 15.4479C243.312 15.6719 243.848 16.0559 244.28 16.5999C244.728 17.1279 244.952 17.7999 244.952 18.6159C244.952 19.7679 244.504 20.6719 243.608 21.3279C242.728 21.9839 241.616 22.3119 240.272 22.3119C239.088 22.3119 238.072 22.0639 237.224 21.5679C236.376 21.0719 235.76 20.3839 235.376 19.5039L237.608 18.2079C238.024 19.3599 238.912 19.9359 240.272 19.9359C241.632 19.9359 242.312 19.4879 242.312 18.5919C242.312 18.2079 242.088 17.8959 241.64 17.6559C241.208 17.4159 240.672 17.2159 240.032 17.0559C239.408 16.8799 238.776 16.6799 238.136 16.4559C237.496 16.2319 236.952 15.8639 236.504 15.3519C236.072 14.8239 235.856 14.1599 235.856 13.3599C235.856 12.2559 236.272 11.3679 237.104 10.6959C237.952 10.0239 239 9.68794 240.248 9.68794C241.24 9.68794 242.12 9.91194 242.888 10.3599C243.672 10.7919 244.272 11.3999 244.688 12.1839L242.504 13.4079C242.088 12.4959 241.336 12.0399 240.248 12.0399C239.752 12.0399 239.336 12.1519 239 12.3759C238.664 12.5839 238.496 12.8959 238.496 13.3119Z" fill="white"/>
<path d="M249.538 7.71994C249.218 8.03994 248.834 8.19994 248.386 8.19994C247.938 8.19994 247.546 8.03994 247.21 7.71994C246.89 7.38394 246.73 6.99194 246.73 6.54394C246.73 6.09594 246.89 5.71194 247.21 5.39194C247.53 5.05594 247.922 4.88794 248.386 4.88794C248.85 4.88794 249.242 5.05594 249.562 5.39194C249.882 5.71194 250.042 6.09594 250.042 6.54394C250.042 6.99194 249.874 7.38394 249.538 7.71994ZM247.09 21.9999V9.99994H249.682V21.9999H247.09Z" fill="white"/>
<path d="M262.244 9.99994H264.788V21.4479C264.788 23.2719 264.188 24.6719 262.988 25.6479C261.788 26.6239 260.332 27.1119 258.62 27.1119C255.852 27.1119 253.956 26.1439 252.932 24.2079L255.164 22.9119C255.788 24.1439 256.956 24.7599 258.668 24.7599C259.788 24.7599 260.66 24.4639 261.284 23.8719C261.924 23.2959 262.244 22.4879 262.244 21.4479V19.9839C261.268 21.3759 259.876 22.0719 258.068 22.0719C256.372 22.0719 254.94 21.4719 253.772 20.2719C252.604 19.0559 252.02 17.5919 252.02 15.8799C252.02 14.1679 252.604 12.7119 253.772 11.5119C254.94 10.2959 256.372 9.68794 258.068 9.68794C259.876 9.68794 261.268 10.3839 262.244 11.7759V9.99994ZM255.692 18.5679C256.428 19.2879 257.34 19.6479 258.428 19.6479C259.516 19.6479 260.42 19.2879 261.14 18.5679C261.876 17.8479 262.244 16.9519 262.244 15.8799C262.244 14.8079 261.876 13.9119 261.14 13.1919C260.42 12.4719 259.516 12.1119 258.428 12.1119C257.34 12.1119 256.428 12.4719 255.692 13.1919C254.972 13.9119 254.612 14.8079 254.612 15.8799C254.612 16.9519 254.972 17.8479 255.692 18.5679Z" fill="white"/>
<path d="M274.121 9.68794C275.497 9.68794 276.609 10.1279 277.457 11.0079C278.305 11.8879 278.729 13.0959 278.729 14.6319V21.9999H276.137V14.8959C276.137 13.9999 275.897 13.3119 275.417 12.8319C274.937 12.3519 274.281 12.1119 273.449 12.1119C272.537 12.1119 271.801 12.3999 271.241 12.9759C270.681 13.5359 270.401 14.3999 270.401 15.5679V21.9999H267.809V9.99994H270.401V11.5359C271.185 10.3039 272.425 9.68794 274.121 9.68794Z" fill="white"/>
<path d="M293.28 22.3119C291.664 22.3119 290.288 21.9439 289.152 21.2079C288.032 20.4719 287.248 19.4639 286.8 18.1839L289.176 16.7919C289.848 18.6799 291.24 19.6239 293.352 19.6239C294.392 19.6239 295.168 19.4239 295.68 19.0239C296.208 18.6079 296.472 18.0719 296.472 17.4159C296.472 16.7279 296.192 16.2079 295.632 15.8559C295.072 15.4879 294.08 15.0879 292.656 14.6559C291.856 14.4159 291.208 14.1919 290.712 13.9839C290.216 13.7759 289.688 13.4879 289.128 13.1199C288.584 12.7359 288.176 12.2639 287.904 11.7039C287.632 11.1439 287.496 10.4879 287.496 9.73594C287.496 8.24794 288.024 7.07194 289.08 6.20794C290.136 5.32794 291.408 4.88794 292.896 4.88794C294.24 4.88794 295.416 5.21594 296.424 5.87194C297.432 6.52794 298.208 7.43194 298.752 8.58394L296.424 9.92794C295.72 8.35994 294.544 7.57594 292.896 7.57594C292.096 7.57594 291.456 7.76794 290.976 8.15194C290.496 8.51994 290.256 9.02394 290.256 9.66394C290.256 10.2879 290.496 10.7839 290.976 11.1519C291.472 11.5039 292.36 11.8799 293.64 12.2799C294.28 12.4879 294.744 12.6479 295.032 12.7599C295.336 12.8559 295.752 13.0159 296.28 13.2399C296.824 13.4639 297.232 13.6879 297.504 13.9119C297.776 14.1359 298.064 14.4159 298.368 14.7519C298.688 15.0879 298.912 15.4719 299.04 15.9039C299.168 16.3359 299.232 16.8239 299.232 17.3679C299.232 18.8879 298.68 20.0959 297.576 20.9919C296.488 21.8719 295.056 22.3119 293.28 22.3119Z" fill="white"/>
<path d="M309.553 9.99994H312.145V21.9999H309.553V20.4639C308.769 21.6959 307.529 22.3119 305.833 22.3119C304.457 22.3119 303.345 21.8719 302.497 20.9919C301.649 20.1119 301.225 18.9039 301.225 17.3679V9.99994H303.817V17.1039C303.817 17.9999 304.057 18.6879 304.537 19.1679C305.017 19.6479 305.673 19.8879 306.505 19.8879C307.417 19.8879 308.153 19.6079 308.713 19.0479C309.273 18.4719 309.553 17.5999 309.553 16.4319V9.99994Z" fill="white"/>
<path d="M321.488 9.68794C322.864 9.68794 323.976 10.1279 324.824 11.0079C325.672 11.8879 326.096 13.0959 326.096 14.6319V21.9999H323.504V14.8959C323.504 13.9999 323.264 13.3119 322.784 12.8319C322.304 12.3519 321.648 12.1119 320.816 12.1119C319.904 12.1119 319.168 12.3999 318.608 12.9759C318.048 13.5359 317.768 14.3999 317.768 15.5679V21.9999H315.176V9.99994H317.768V11.5359C318.552 10.3039 319.792 9.68794 321.488 9.68794Z" fill="white"/>
<path d="M338.391 5.19994H340.983V21.9999H338.391V20.2719C337.415 21.6319 336.015 22.3119 334.191 22.3119C332.543 22.3119 331.135 21.7039 329.967 20.4879C328.799 19.2559 328.215 17.7599 328.215 15.9999C328.215 14.2239 328.799 12.7279 329.967 11.5119C331.135 10.2959 332.543 9.68794 334.191 9.68794C336.015 9.68794 337.415 10.3599 338.391 11.7039V5.19994ZM331.887 18.7599C332.607 19.4799 333.511 19.8399 334.599 19.8399C335.687 19.8399 336.591 19.4799 337.311 18.7599C338.031 18.0239 338.391 17.1039 338.391 15.9999C338.391 14.8959 338.031 13.9839 337.311 13.2639C336.591 12.5279 335.687 12.1599 334.599 12.1599C333.511 12.1599 332.607 12.5279 331.887 13.2639C331.167 13.9839 330.807 14.8959 330.807 15.9999C330.807 17.1039 331.167 18.0239 331.887 18.7599Z" fill="white"/>
<path d="M353.508 9.99994H356.1V21.9999H353.508V20.2719C352.532 21.6319 351.132 22.3119 349.308 22.3119C347.66 22.3119 346.252 21.7039 345.084 20.4879C343.916 19.2559 343.332 17.7599 343.332 15.9999C343.332 14.2239 343.916 12.7279 345.084 11.5119C346.252 10.2959 347.66 9.68794 349.308 9.68794C351.132 9.68794 352.532 10.3599 353.508 11.7039V9.99994ZM347.004 18.7599C347.724 19.4799 348.628 19.8399 349.716 19.8399C350.804 19.8399 351.708 19.4799 352.428 18.7599C353.148 18.0239 353.508 17.1039 353.508 15.9999C353.508 14.8959 353.148 13.9839 352.428 13.2639C351.708 12.5279 350.804 12.1599 349.716 12.1599C348.628 12.1599 347.724 12.5279 347.004 13.2639C346.284 13.9839 345.924 14.8959 345.924 15.9999C345.924 17.1039 346.284 18.0239 347.004 18.7599Z" fill="white"/>
<path d="M367.209 9.99994H369.969L365.361 22.3839C364.209 25.4879 362.257 26.9599 359.505 26.7999V24.3759C360.321 24.4239 360.977 24.2479 361.473 23.8479C361.969 23.4639 362.377 22.8559 362.697 22.0239L362.817 21.7839L357.729 9.99994H360.561L364.137 18.7119L367.209 9.99994Z" fill="white"/>
<path d="M373.191 13.3119C373.191 13.7119 373.408 14.0319 373.84 14.2719C374.288 14.4959 374.823 14.6959 375.447 14.8719C376.087 15.0319 376.728 15.2239 377.368 15.4479C378.008 15.6719 378.543 16.0559 378.975 16.5999C379.423 17.1279 379.648 17.7999 379.648 18.6159C379.648 19.7679 379.199 20.6719 378.303 21.3279C377.423 21.9839 376.311 22.3119 374.967 22.3119C373.783 22.3119 372.767 22.0639 371.919 21.5679C371.071 21.0719 370.456 20.3839 370.072 19.5039L372.303 18.2079C372.719 19.3599 373.607 19.9359 374.967 19.9359C376.327 19.9359 377.008 19.4879 377.008 18.5919C377.008 18.2079 376.783 17.8959 376.335 17.6559C375.903 17.4159 375.368 17.2159 374.728 17.0559C374.104 16.8799 373.471 16.6799 372.831 16.4559C372.191 16.2319 371.648 15.8639 371.2 15.3519C370.768 14.8239 370.551 14.1599 370.551 13.3599C370.551 12.2559 370.967 11.3679 371.799 10.6959C372.647 10.0239 373.695 9.68794 374.943 9.68794C375.935 9.68794 376.815 9.91194 377.583 10.3599C378.367 10.7919 378.967 11.3999 379.383 12.1839L377.2 13.4079C376.784 12.4959 376.031 12.0399 374.943 12.0399C374.447 12.0399 374.031 12.1519 373.695 12.3759C373.359 12.5839 373.191 12.8959 373.191 13.3119Z" fill="white"/>
</svg>
