<svg width="99" height="96" viewBox="0 0 99 96" fill="none" xmlns="http://www.w3.org/2000/svg">
<rect width="99" height="96" rx="19" fill="#F4F8FE"/>
<g clip-path="url(#clip0)">
<path d="M38.9944 81.489C45.0663 81.489 49.9942 76.5611 49.9942 70.4892V59.4894H38.9944C32.9225 59.4894 27.9946 64.4173 27.9946 70.4892C27.9946 76.5611 32.9225 81.489 38.9944 81.489Z" fill="#09CF84"/>
<path d="M27.9946 48.4894C27.9946 42.4175 32.9225 37.4896 38.9944 37.4896H49.9942V59.4892H38.9944C32.9225 59.4892 27.9946 54.5613 27.9946 48.4894Z" fill="#A259FF"/>
<path d="M27.9966 26.49C27.9966 20.4181 32.9245 15.4902 38.9964 15.4902H49.9962V37.4898H38.9964C32.9245 37.4898 27.9966 32.5619 27.9966 26.49Z" fill="#F24D1D"/>
<path d="M49.9961 15.4901H60.9959C67.0678 15.4901 71.9957 20.418 71.9957 26.4899C71.9957 32.5618 67.0678 37.4897 60.9959 37.4897H49.9961V15.4901Z" fill="#FF7163"/>
<path d="M71.9957 48.4894C71.9957 54.5613 67.0678 59.4892 60.9959 59.4892C54.924 59.4892 49.9961 54.5613 49.9961 48.4894C49.9961 42.4175 54.924 37.4896 60.9959 37.4896C67.0678 37.4896 71.9957 42.4175 71.9957 48.4894Z" fill="#19BCFD"/>
</g>
<defs>
<clipPath id="clip0">
<rect x="27.9922" y="15.4902" width="44.008" height="65.9988" fill="white"/>
</clipPath>
</defs>
</svg>
